<?xml version="1.0" standalone="no"?>
<!DOCTYPE svg PUBLIC "-//W3C//DTD SVG 20010904//EN"
 "http://www.w3.org/TR/2001/REC-SVG-20010904/DTD/svg10.dtd">
<svg version="1.0" xmlns="http://www.w3.org/2000/svg"
 width="803.000000pt" height="803.000000pt" viewBox="0 0 803.000000 803.000000"
 preserveAspectRatio="xMidYMid meet">
<metadata>
Created by potrace 1.14, written by Peter Selinger 2001-2017
</metadata>
<g transform="translate(0.000000,803.000000) scale(0.100000,-0.100000)"
fill="#000000" stroke="none">
<path d="M3680 7866 c0 -10 -6 -13 -17 -9 -12 5 -14 3 -8 -8 7 -11 5 -11 -10
1 -17 14 -18 13 -12 -4 6 -16 5 -17 -8 -6 -8 7 -15 10 -15 6 0 -3 -12 -1 -26
4 -17 7 -23 7 -19 0 4 -7 -5 -9 -25 -5 -24 4 -30 2 -24 -7 4 -7 -3 -4 -15 6
-22 20 -22 20 -15 0 6 -15 4 -17 -6 -7 -13 12 -46 1 -62 -22 -4 -5 -8 -1 -8
10 0 17 -2 17 -10 5 -5 -8 -10 -11 -10 -7 0 4 -10 2 -22 -4 -22 -12 -22 -11
-8 7 14 18 14 18 -2 5 -10 -7 -18 -10 -18 -5 0 5 -7 0 -15 -10 -11 -14 -15
-16 -15 -5 0 8 -3 10 -8 4 -16 -22 -49 -34 -61 -22 -8 8 -14 6 -24 -8 -9 -12
-16 -14 -21 -7 -4 6 -14 8 -23 5 -12 -5 -14 -3 -8 8 8 12 6 12 -8 0 -9 -7 -17
-10 -17 -6 0 4 -6 2 -13 -4 -8 -6 -18 -7 -23 -3 -4 4 -2 -2 6 -12 14 -18 14
-19 -7 -7 -17 9 -23 9 -23 0 0 -8 -5 -7 -17 2 -15 12 -16 12 -9 -6 6 -16 5
-18 -5 -7 -16 15 -33 16 -23 1 5 -8 -1 -10 -20 -7 -20 4 -24 2 -16 -7 7 -9 2
-11 -20 -10 -20 1 -30 -3 -30 -12 0 -8 -5 -11 -10 -8 -6 4 -8 12 -4 18 3 7 -2
3 -10 -7 -9 -11 -16 -15 -16 -8 0 6 -7 9 -15 6 -8 -4 -12 -11 -8 -18 4 -6 -2
-4 -12 4 -11 9 -16 10 -11 3 5 -10 -3 -13 -28 -13 -20 0 -36 -5 -36 -11 0 -5
5 -7 12 -3 7 4 8 3 4 -5 -5 -7 -13 -8 -23 -3 -19 11 -76 -15 -67 -30 4 -7 2
-8 -5 -4 -6 4 -8 13 -4 19 4 7 0 6 -10 -2 -14 -11 -17 -11 -17 0 -1 8 -8 1
-16 -16 -8 -16 -12 -23 -10 -13 7 23 -26 16 -35 -8 -7 -18 -8 -18 -9 1 -1 15
-3 17 -8 5 -4 -8 -14 -16 -22 -18 -23 -5 -40 -23 -33 -35 3 -6 1 -7 -5 -3 -6
4 -10 12 -8 19 1 7 1 9 -1 4 -3 -4 -10 -4 -16 0 -6 4 -8 0 -4 -10 3 -9 3 -16
-1 -16 -26 4 -42 -2 -36 -13 6 -10 5 -10 -8 0 -12 10 -17 10 -27 -1 -6 -8 -7
-18 -3 -23 4 -4 -1 -2 -10 5 -18 13 -19 12 -22 -11 -1 -13 -36 -21 -36 -7 0 4
-7 6 -15 3 -11 -4 -12 -10 -6 -18 7 -8 4 -12 -9 -12 -10 0 -16 4 -13 9 3 5 0
7 -8 5 -8 -3 -13 -11 -11 -18 2 -11 0 -11 -12 -1 -10 8 -16 9 -21 1 -3 -6 -12
-7 -18 -3 -8 5 -8 2 1 -9 10 -13 9 -15 -12 -13 -20 3 -24 -1 -21 -17 4 -16 2
-18 -10 -8 -12 10 -15 9 -15 -5 0 -14 -3 -15 -14 -6 -11 9 -15 8 -20 -4 -3 -9
-14 -15 -23 -13 -10 2 -17 -2 -16 -9 2 -7 -2 -13 -8 -13 -5 0 -7 -5 -3 -12 4
-7 3 -8 -5 -4 -6 4 -9 12 -5 17 3 6 -3 5 -15 -3 -12 -7 -19 -19 -16 -27 4 -11
3 -12 -10 -1 -12 10 -15 10 -15 0 0 -8 -3 -10 -7 -6 -4 3 -13 -4 -20 -16 -11
-21 -12 -22 -13 -3 0 15 -4 12 -17 -13 -8 -18 -18 -30 -21 -28 -3 3 1 12 8 21
22 26 2 16 -30 -15 -18 -18 -36 -27 -43 -23 -7 4 -5 -2 3 -12 10 -13 11 -16 2
-11 -8 5 -19 1 -28 -10 -15 -18 -15 -18 -10 1 6 19 5 19 -8 1 -9 -10 -20 -15
-27 -10 -8 4 -10 3 -5 -4 4 -7 2 -12 -4 -12 -6 0 -8 -4 -5 -10 3 -5 0 -7 -8
-4 -8 3 -20 -2 -27 -11 -7 -8 -19 -15 -26 -15 -8 0 -14 -5 -14 -11 0 -5 6 -7
13 -3 7 4 9 3 4 -2 -5 -5 -14 -9 -20 -9 -7 0 -11 -8 -11 -18 2 -13 -1 -15 -11
-7 -8 7 -17 4 -30 -10 -21 -24 -14 -27 9 -4 9 8 16 11 16 5 0 -13 -33 -31 -55
-31 -22 0 -48 -27 -40 -42 4 -7 1 -6 -7 3 -12 14 -15 14 -33 -4 -11 -11 -15
-17 -9 -14 6 3 11 0 11 -7 0 -8 -7 -12 -15 -8 -11 4 -13 1 -7 -8 5 -9 4 -11
-3 -6 -7 4 -22 0 -34 -8 -12 -9 -18 -16 -12 -16 5 0 16 6 24 13 12 10 12 9 1
-5 -7 -10 -20 -18 -28 -18 -8 0 -12 -4 -8 -9 3 -6 -4 -8 -16 -6 -12 2 -19 2
-15 -2 3 -3 -11 -17 -32 -30 -20 -14 -28 -22 -17 -19 20 6 20 6 1 -9 -11 -8
-24 -15 -29 -15 -4 0 -5 -5 -1 -12 5 -7 2 -9 -9 -5 -12 4 -15 1 -12 -14 2 -11
0 -17 -4 -14 -5 3 -11 -2 -15 -10 -3 -8 -12 -12 -21 -9 -11 4 -14 2 -9 -9 3
-8 0 -18 -7 -23 -8 -4 -10 -3 -5 4 4 7 2 12 -3 12 -10 0 -15 -14 -12 -32 0 -4
-7 -4 -16 -1 -12 5 -14 3 -8 -7 6 -10 4 -12 -11 -6 -10 4 -15 4 -12 0 4 -4 2
-16 -4 -28 -7 -11 -11 -24 -10 -27 1 -4 -8 -5 -18 -2 -18 5 -25 -5 -21 -29 0
-4 -7 -4 -16 -1 -10 4 -14 2 -9 -5 3 -6 -2 -13 -13 -17 -10 -3 -18 -13 -17
-23 0 -10 -5 -16 -13 -14 -9 2 -11 -3 -7 -14 5 -12 2 -15 -10 -10 -12 4 -15 2
-11 -9 4 -8 1 -17 -5 -21 -7 -4 -8 -3 -4 4 13 21 -10 13 -30 -10 -12 -15 -14
-19 -4 -13 9 6 4 -1 -10 -14 -14 -13 -20 -21 -14 -18 6 4 11 0 11 -7 0 -8 -6
-12 -12 -10 -7 3 -18 -3 -26 -13 -13 -16 -12 -17 3 -5 11 9 18 10 23 2 4 -6 3
-10 -2 -9 -4 1 -18 -2 -31 -6 -18 -6 -20 -10 -11 -21 9 -11 9 -13 -3 -9 -8 3
-23 -4 -33 -15 -18 -20 -18 -21 0 -14 17 7 17 5 -2 -16 -12 -12 -20 -26 -18
-30 3 -4 -3 -7 -12 -6 -9 0 -18 -5 -21 -13 -3 -9 0 -11 8 -6 9 6 11 4 6 -4 -5
-7 -15 -10 -23 -6 -13 4 -13 3 -4 -9 9 -11 8 -14 -5 -12 -9 0 -19 -6 -21 -14
-4 -13 -3 -13 7 0 10 13 11 13 7 0 -2 -8 -11 -14 -20 -12 -11 2 -15 -3 -12
-17 2 -13 -1 -18 -10 -15 -9 4 -12 -3 -10 -25 1 -17 -1 -28 -6 -25 -5 3 -7 10
-4 15 4 5 1 9 -4 9 -6 0 -11 -7 -11 -16 0 -9 -5 -12 -12 -8 -8 5 -7 0 2 -11 9
-11 10 -16 3 -11 -12 6 -18 -10 -14 -36 0 -4 -7 -4 -17 -1 -14 6 -15 4 -4 -9
10 -13 9 -18 -5 -29 -16 -13 -17 -12 -4 4 9 11 10 17 2 17 -6 0 -14 -13 -17
-30 -4 -17 -11 -27 -17 -23 -7 4 -8 0 -4 -11 5 -13 3 -17 -7 -13 -14 6 -16 -9
-4 -29 4 -6 1 -11 -7 -11 -8 0 -12 4 -9 9 3 4 0 8 -5 8 -6 0 -11 -5 -11 -12 0
-6 -8 -20 -17 -31 -10 -11 -13 -17 -6 -14 6 4 15 3 18 -3 4 -6 3 -10 -2 -9
-19 3 -33 -2 -33 -12 0 -5 5 -7 12 -3 7 4 8 3 4 -4 -4 -7 -15 -12 -24 -12 -13
0 -14 -2 -4 -9 11 -7 11 -9 -2 -14 -9 -4 -13 -14 -11 -27 3 -17 0 -20 -12 -16
-11 4 -14 2 -9 -9 3 -8 1 -15 -4 -15 -5 0 -12 -11 -16 -25 -3 -14 -10 -25 -16
-25 -5 0 -6 -5 -3 -10 5 -8 12 -7 23 2 15 12 16 11 4 -4 -8 -9 -19 -15 -26
-12 -19 7 -48 -40 -33 -55 8 -8 8 -11 -2 -11 -11 0 -11 -3 -1 -15 11 -13 10
-14 -5 -9 -15 6 -16 4 -7 -13 9 -15 8 -20 -3 -20 -8 0 -11 5 -8 10 3 6 1 7 -5
4 -11 -8 -11 -25 1 -44 6 -9 3 -11 -7 -7 -9 3 -19 -3 -26 -17 -11 -20 -10 -21
6 -15 15 5 14 2 -4 -12 -18 -14 -20 -20 -10 -31 11 -12 10 -13 -4 -8 -20 7
-31 -26 -14 -44 8 -9 7 -11 -5 -6 -9 3 -21 -3 -28 -15 -7 -11 -8 -17 -2 -13 6
3 11 1 11 -4 0 -6 -5 -11 -11 -11 -6 0 -8 -7 -5 -16 4 -10 2 -13 -6 -8 -8 5
-9 2 -5 -9 3 -10 2 -17 -3 -17 -5 0 -6 -7 -3 -17 5 -12 3 -14 -8 -8 -8 4 -11
5 -7 0 4 -4 1 -20 -8 -36 -8 -16 -12 -29 -8 -29 4 0 2 -6 -5 -13 -7 -10 -8
-16 0 -24 8 -8 6 -15 -9 -24 -16 -10 -19 -17 -10 -32 6 -12 6 -17 0 -13 -5 3
-13 -1 -16 -10 -8 -22 -8 -26 4 -19 6 3 7 -1 4 -9 -3 -9 -10 -16 -16 -16 -5 0
-7 -4 -4 -8 3 -5 -1 -20 -9 -35 -9 -19 -10 -29 -3 -33 7 -5 8 -2 3 6 -5 9 -4
11 4 6 8 -6 9 -12 2 -20 -6 -7 -7 -17 -3 -22 4 -4 0 -3 -8 3 -13 10 -16 8 -16
-7 0 -10 5 -16 11 -13 5 2 -1 -5 -15 -17 -20 -18 -21 -21 -6 -16 20 7 20 7 0
-15 -12 -15 -14 -20 -4 -15 9 5 8 2 -2 -7 -10 -8 -15 -17 -11 -21 4 -4 1 -11
-7 -16 -9 -6 -10 -10 -3 -10 15 0 10 -53 -6 -58 -9 -3 -9 -7 0 -18 9 -12 9
-13 -2 -9 -11 4 -15 -2 -14 -22 0 -16 4 -34 8 -40 5 -8 3 -13 -4 -13 -8 0 -8
-4 1 -15 11 -13 10 -14 -4 -9 -22 8 -21 -12 2 -26 15 -9 15 -10 0 -8 -9 2 -16
-1 -15 -7 1 -5 6 -9 10 -7 5 1 6 -2 2 -8 -3 -6 -11 -8 -16 -5 -5 4 -9 1 -9 -4
0 -6 5 -11 11 -11 8 0 8 -4 0 -14 -8 -10 -9 -16 -1 -21 13 -8 13 -25 -1 -25
-5 0 -7 5 -3 11 4 7 1 10 -7 7 -16 -5 -20 -66 -6 -85 6 -9 6 -13 -2 -13 -6 0
-11 -5 -11 -11 0 -5 6 -7 13 -3 8 5 8 2 -2 -9 -10 -13 -10 -17 -1 -17 9 0 9
-4 -1 -17 -10 -11 -10 -14 -2 -9 7 4 13 2 13 -3 0 -6 -7 -11 -15 -11 -8 0 -15
-4 -15 -10 0 -5 3 -9 8 -7 4 1 8 -2 9 -8 1 -5 -6 -8 -15 -7 -14 3 -15 1 -5 -9
10 -10 9 -17 -5 -33 -10 -11 -11 -16 -3 -11 11 6 13 2 7 -19 -4 -17 -2 -26 5
-26 7 0 4 -9 -7 -22 -10 -12 -13 -18 -6 -14 10 6 12 -1 9 -28 -3 -26 0 -40 12
-47 15 -10 15 -10 0 -5 -13 3 -16 -2 -16 -22 1 -15 6 -30 12 -34 7 -5 7 -11 0
-15 -12 -10 -14 -63 -2 -63 4 0 5 -6 1 -12 -12 -19 -12 -48 -1 -48 5 0 4 -7
-3 -15 -12 -14 -7 -19 13 -16 5 1 6 -3 2 -9 -3 -6 -11 -8 -16 -5 -5 4 -9 1 -9
-4 0 -6 5 -11 11 -11 8 0 7 -6 -2 -17 -11 -13 -11 -17 -1 -21 10 -3 10 -7 0
-20 -11 -12 -11 -16 0 -20 10 -3 10 -7 0 -20 -11 -12 -11 -16 0 -20 10 -3 10
-7 0 -20 -11 -12 -11 -16 0 -20 10 -3 10 -7 1 -18 -8 -10 -7 -17 5 -29 18 -18
21 -29 6 -20 -5 3 -10 1 -10 -4 0 -6 4 -11 9 -11 5 0 12 -7 15 -16 3 -8 2 -12
-4 -9 -6 3 -10 2 -10 -4 0 -5 8 -12 18 -14 15 -4 14 -5 -2 -6 -20 -1 -20 -1 0
-16 10 -9 13 -14 5 -13 -7 2 -16 -3 -19 -11 -2 -8 0 -11 5 -8 5 3 10 0 10 -8
0 -8 -3 -12 -7 -10 -3 2 -6 -7 -6 -20 0 -13 4 -21 10 -18 5 4 7 -1 3 -10 -4
-10 -1 -17 6 -17 8 0 6 -4 -3 -10 -13 -8 -12 -10 5 -11 11 -1 24 -1 28 0 5 1
6 -3 2 -9 -3 -6 -10 -8 -15 -5 -4 3 -10 -2 -14 -10 -3 -8 -1 -15 5 -15 6 0 7
-6 1 -16 -10 -18 -4 -61 9 -70 5 -3 6 1 3 9 -3 8 -2 17 3 20 4 3 8 -8 8 -23 1
-16 -3 -26 -7 -24 -4 3 -8 0 -8 -5 0 -6 6 -11 13 -11 8 0 7 -4 -3 -10 -12 -8
-12 -10 5 -11 11 0 14 -3 8 -6 -7 -2 -13 -9 -13 -14 0 -6 4 -8 9 -5 5 4 7 -3
4 -14 -3 -11 -1 -20 5 -20 5 0 12 -7 15 -14 4 -11 1 -13 -10 -9 -13 5 -13 3
-5 -14 6 -11 8 -23 5 -27 -3 -3 2 -16 13 -28 10 -12 13 -18 7 -14 -7 4 -13 2
-13 -3 0 -6 6 -11 14 -11 19 0 27 -25 13 -39 -8 -8 -8 -11 1 -11 6 0 9 -7 5
-17 -4 -11 -3 -14 6 -9 9 6 11 -2 7 -33 -2 -24 0 -39 5 -35 5 3 9 0 9 -6 0 -6
5 -8 11 -4 6 3 3 -6 -7 -22 -11 -15 -14 -25 -7 -21 7 5 17 -1 23 -14 8 -15 9
-19 1 -15 -6 4 -11 3 -11 -3 0 -5 5 -13 11 -17 8 -4 7 -9 -2 -16 -11 -7 -10
-8 4 -4 13 4 18 1 16 -12 -1 -9 0 -20 1 -24 1 -5 3 -14 4 -20 1 -7 9 -12 18
-12 13 1 15 -2 6 -16 -9 -14 -8 -22 5 -35 21 -21 22 -32 2 -15 -13 11 -14 10
-9 -3 3 -8 12 -18 20 -21 11 -4 13 -13 9 -27 -5 -13 -3 -19 3 -15 5 3 13 -1
16 -10 4 -10 2 -13 -7 -8 -9 6 -9 5 0 -8 7 -8 9 -19 5 -24 -4 -4 1 -3 10 5 15
11 16 9 14 -16 -2 -15 3 -36 11 -45 9 -10 13 -24 10 -32 -3 -8 1 -20 9 -26 8
-7 14 -19 14 -27 0 -10 6 -13 17 -9 10 4 14 4 11 0 -4 -4 -2 -16 4 -28 11 -20
10 -20 -7 -6 -18 14 -18 13 0 -11 11 -15 24 -24 29 -21 5 3 5 -1 0 -9 -12 -19
-14 -39 -4 -39 5 0 11 6 14 13 3 6 3 2 0 -10 -4 -17 -1 -23 10 -23 9 0 16 -5
16 -11 0 -5 -6 -7 -12 -3 -7 4 -5 -2 4 -13 10 -11 18 -25 18 -32 0 -7 4 -10 9
-7 5 3 12 -1 15 -10 4 -10 2 -13 -7 -8 -8 5 -7 2 2 -9 7 -9 10 -17 6 -17 -5 0
2 -9 14 -19 15 -13 18 -21 10 -26 -7 -5 -3 -15 15 -32 15 -13 23 -29 20 -35
-5 -7 -2 -8 6 -3 10 6 12 4 7 -8 -6 -16 8 -32 28 -32 5 0 12 -11 15 -25 5 -25
76 -139 94 -152 6 -4 14 -4 20 -1 5 3 6 1 2 -6 -4 -6 -13 -9 -19 -5 -7 3 -1
-4 13 -16 14 -12 18 -18 10 -14 -9 4 -6 -2 5 -13 11 -11 24 -18 29 -15 5 3 7
-2 3 -11 -4 -11 -1 -17 8 -17 9 0 15 -9 15 -22 0 -19 2 -20 10 -8 8 12 10 11
10 -7 0 -13 5 -23 11 -23 5 0 7 -4 4 -10 -3 -5 -1 -10 5 -10 6 0 8 -5 4 -12
-5 -7 -2 -9 9 -5 11 4 14 2 10 -9 -3 -8 1 -14 9 -14 8 0 22 -8 31 -18 13 -15
14 -21 4 -31 -10 -11 -8 -12 10 -7 18 6 21 4 16 -16 -5 -23 -5 -23 10 -3 15
19 16 19 13 -7 -2 -19 4 -33 20 -45 12 -9 21 -20 18 -25 -5 -8 9 -12 36 -9 13
2 13 1 0 -8 -13 -10 -8 -15 12 -12 4 0 4 -7 1 -16 -4 -10 -2 -14 5 -9 6 3 13
-3 17 -14 3 -11 13 -20 21 -20 8 0 13 -4 9 -9 -3 -6 4 -15 15 -21 13 -7 19
-17 16 -27 -4 -9 1 -17 12 -20 10 -2 22 -14 27 -26 6 -12 21 -27 35 -34 14 -7
24 -17 23 -21 -1 -5 4 -9 12 -9 8 0 11 7 7 16 -7 21 2 12 18 -18 8 -15 8 -21
1 -17 -6 4 -11 2 -11 -3 0 -6 12 -11 26 -11 18 0 25 -4 21 -14 -4 -9 0 -12 12
-9 11 3 21 -2 25 -13 6 -15 4 -15 -11 -3 -16 13 -17 12 -4 -4 8 -10 20 -16 27
-13 7 3 16 0 20 -6 5 -7 2 -8 -7 -4 -8 4 -5 0 5 -8 11 -9 23 -16 28 -16 4 0 7
-3 7 -8 -3 -19 2 -33 11 -27 6 3 10 1 10 -5 0 -7 7 -9 16 -6 11 4 18 -1 21
-15 3 -11 11 -18 19 -15 7 3 16 -3 19 -14 5 -17 75 -78 75 -65 0 3 9 1 20 -5
12 -7 18 -16 13 -23 -4 -7 2 -5 12 3 17 14 18 13 12 -2 -4 -11 -2 -17 6 -15 7
1 11 -4 10 -10 -2 -7 8 -15 22 -19 14 -3 22 -11 18 -17 -4 -6 2 -8 15 -5 14 4
19 2 16 -7 -6 -16 54 -52 84 -50 17 1 19 -1 11 -12 -9 -10 -7 -13 7 -14 11 -1
23 -1 27 0 5 1 6 -3 2 -9 -3 -6 4 -10 17 -10 18 0 20 -2 8 -10 -13 -8 -12 -10
3 -10 9 0 17 -4 17 -9 0 -5 7 -12 16 -15 8 -3 12 -2 9 4 -3 6 1 7 9 4 9 -3 13
-10 10 -15 -3 -5 2 -9 11 -9 10 0 13 5 9 13 -4 7 -3 9 2 4 5 -5 9 -14 9 -20 0
-7 8 -11 17 -11 10 1 16 -3 15 -10 -1 -6 11 -11 28 -12 16 -1 31 -6 33 -13 2
-6 8 -11 13 -11 6 0 7 6 3 13 -4 6 2 4 13 -6 11 -9 23 -14 28 -10 4 5 5 2 1
-5 -6 -11 -11 -11 -24 0 -12 10 -14 10 -8 0 11 -18 70 -48 61 -30 -3 7 1 4 10
-7 14 -17 17 -18 26 -5 9 12 10 12 5 -3 -4 -13 2 -20 20 -27 14 -6 30 -7 36
-4 7 5 8 2 3 -6 -6 -10 -3 -12 13 -8 16 5 19 2 14 -11 -5 -14 -4 -14 13 -1 17
14 18 13 12 -4 -6 -14 -4 -17 8 -12 8 3 15 0 15 -6 0 -7 5 -6 15 2 9 7 18 10
22 6 3 -3 1 -6 -6 -6 -9 0 -8 -4 3 -15 18 -18 30 -20 20 -2 -4 6 4 2 17 -9 16
-15 34 -21 57 -19 29 2 31 1 15 -11 -14 -9 -14 -12 -3 -11 8 2 20 6 27 10 6 4
15 2 19 -4 5 -8 2 -10 -7 -5 -8 4 -5 0 5 -8 18 -15 38 -20 59 -17 4 0 7 -3 7
-9 0 -5 9 -14 20 -20 16 -9 18 -8 14 5 -3 8 -11 12 -17 8 -6 -4 -7 -1 -2 7 6
10 12 8 27 -9 10 -13 18 -18 18 -11 0 7 6 6 16 -4 12 -12 20 -13 35 -6 11 6
19 7 18 3 -3 -19 2 -33 12 -33 5 0 7 4 4 10 -3 6 1 7 9 4 9 -3 16 -11 16 -16
0 -6 6 -6 14 1 11 9 16 9 22 0 5 -8 3 -9 -6 -4 -9 5 -11 4 -6 -4 4 -6 12 -9
17 -6 5 4 9 0 9 -7 0 -9 3 -9 10 2 6 10 10 11 10 3 0 -7 5 -13 11 -13 5 0 7 5
4 10 -3 6 -1 10 4 10 6 0 11 -4 11 -10 0 -5 7 -10 16 -10 8 0 13 -4 10 -8 -3
-5 1 -9 9 -9 8 0 11 5 8 11 -3 6 -1 6 7 -1 7 -6 19 -9 28 -6 11 5 13 3 7 -7
-6 -10 -4 -12 7 -7 9 3 21 0 28 -6 10 -9 11 -9 5 2 -6 10 -2 10 16 -2 13 -8
32 -13 42 -12 9 2 17 -1 17 -7 0 -6 7 -4 17 3 11 10 14 10 9 2 -4 -8 -1 -13 8
-13 9 0 16 5 16 12 0 6 3 8 6 5 4 -4 1 -14 -7 -23 -13 -16 -12 -16 8 -6 12 7
24 17 27 24 3 7 3 2 0 -12 l-7 -25 24 20 c14 12 19 14 11 4 -10 -14 -10 -18 4
-23 21 -8 26 -8 20 2 -3 5 1 9 9 9 8 0 12 -4 9 -9 -8 -12 8 -10 39 7 15 8 26
11 23 7 -17 -28 64 -50 106 -30 10 5 20 3 24 -4 5 -7 3 -8 -6 -3 -9 6 -11 4
-6 -4 6 -9 13 -8 27 5 17 16 18 15 15 -2 -4 -18 3 -19 78 -19 44 0 87 -4 95
-10 12 -8 13 -6 7 10 -5 15 -4 17 5 8 6 -6 18 -9 27 -5 12 4 14 1 9 -13 -6
-15 -5 -16 8 -5 11 9 15 9 15 1 0 -7 5 -9 10 -6 5 3 10 0 10 -7 0 -10 3 -9 10
2 5 8 12 11 16 7 4 -4 13 -2 20 4 8 7 14 6 20 -2 5 -8 3 -9 -6 -4 -9 6 -11 4
-5 -4 5 -9 10 -10 18 -2 15 15 30 14 21 -1 -4 -7 3 -4 15 6 22 20 22 20 15 0
-6 -16 -5 -17 7 -6 7 6 19 12 27 12 8 0 10 -5 6 -12 -6 -11 -4 -11 7 0 17 16
32 16 23 0 -6 -10 -4 -10 7 -3 16 12 39 13 56 2 6 -4 15 -2 19 4 5 8 3 9 -6 4
-8 -5 -11 -4 -6 3 4 6 13 9 21 6 8 -4 12 -11 9 -16 -4 -6 1 -6 13 1 14 7 23 7
30 0 8 -8 13 -7 18 2 6 8 4 10 -5 4 -8 -5 -11 -4 -6 3 4 6 13 9 21 6 8 -4 12
-10 9 -15 -3 -5 2 -6 10 -3 9 3 13 10 10 15 -3 5 2 6 10 3 9 -3 16 -10 16 -15
0 -6 10 -1 22 11 12 11 27 20 32 20 6 0 4 -5 -4 -10 -9 -6 -10 -10 -3 -10 6 0
15 5 18 10 4 6 11 8 16 5 5 -4 9 0 9 7 0 8 5 6 11 -5 8 -14 14 -16 25 -6 7 6
11 16 7 23 -3 6 3 2 15 -8 12 -11 22 -15 22 -10 0 5 5 2 10 -6 8 -13 10 -13
10 2 0 9 5 20 12 24 7 4 8 3 4 -4 -4 -7 -5 -16 -1 -22 8 -13 36 0 28 14 -4 7
-1 7 7 -1 11 -10 16 -9 27 5 9 11 12 11 7 2 -5 -11 -1 -10 13 3 16 14 23 15
29 6 5 -8 3 -10 -6 -4 -9 6 -11 4 -5 -4 5 -9 10 -10 18 -2 7 7 15 7 26 -2 12
-10 14 -9 8 6 -6 15 -4 16 13 7 11 -6 20 -7 20 -1 0 5 6 9 13 8 31 -1 48 4 43
12 -4 5 9 6 29 1 21 -5 35 -4 35 2 0 5 4 7 9 4 12 -7 42 4 37 13 -6 10 42 6
51 -4 5 -4 2 -5 -6 0 -10 6 -12 4 -6 -5 6 -10 13 -7 27 11 11 13 17 18 13 12
-9 -18 20 -16 39 3 9 8 21 12 27 8 8 -4 9 -3 5 4 -4 7 -2 12 3 12 6 0 11 -6
11 -12 0 -8 3 -9 8 -3 10 14 56 39 48 26 -10 -15 34 -4 54 14 9 8 21 15 26 15
5 0 2 -5 -6 -10 -11 -8 -9 -9 10 -6 14 3 25 5 25 6 0 2 38 11 52 12 10 1 10 4
0 16 -10 13 -9 14 11 3 15 -8 22 -8 22 -1 0 6 5 8 10 5 6 -3 10 0 10 7 0 11 2
10 9 0 6 -11 10 -10 15 3 5 14 9 15 20 6 9 -8 17 -8 20 -2 3 5 3 11 -1 14 -5
2 -3 2 4 1 7 -2 15 1 19 7 4 6 11 6 20 -2 10 -8 14 -8 14 -1 0 6 7 9 15 6 20
-8 19 6 -2 23 -10 8 -12 12 -6 8 27 -13 55 -14 50 -2 -3 8 6 12 30 11 28 -2
32 0 22 12 -10 12 -9 13 5 8 26 -10 76 15 68 34 -5 15 -4 15 12 -1 15 -15 36
-16 36 -1 0 3 -4 2 -10 -1 -6 -3 -10 -2 -10 3 0 5 9 12 20 15 12 3 17 1 14 -5
-7 -11 38 13 47 25 3 4 15 9 27 10 17 1 19 4 9 16 -10 12 -9 13 11 2 19 -10
22 -9 23 6 0 11 3 13 6 6 2 -7 9 -13 15 -13 6 0 7 7 4 16 -6 15 -4 15 11 3 14
-12 16 -12 8 0 -6 11 -4 13 7 8 10 -3 28 7 49 26 18 18 30 27 26 20 -5 -7 0
-9 13 -6 11 3 17 10 13 16 -4 7 0 8 12 3 15 -5 16 -4 6 8 -10 12 -8 13 10 9
17 -5 20 -3 14 8 -6 11 -5 12 6 2 19 -18 27 -16 34 8 6 17 9 19 16 8 7 -11 9
-10 9 4 0 10 5 15 10 12 6 -3 10 -1 10 6 0 7 3 9 7 6 3 -4 12 1 20 11 9 10 12
11 7 2 -4 -9 -3 -12 2 -7 5 5 9 14 9 20 0 7 9 12 20 12 14 0 19 7 18 20 -1 20
-1 20 13 1 13 -18 14 -18 14 -2 0 10 4 14 12 10 8 -5 9 -2 4 11 -5 15 -4 16 8
6 11 -9 16 -9 22 0 4 7 3 9 -3 6 -5 -3 -10 0 -10 8 0 10 5 11 16 5 16 -8 51 9
51 25 0 5 -10 0 -22 -11 l-23 -19 19 22 c10 12 23 21 30 20 6 -1 10 3 9 10 -2
7 4 10 13 6 13 -5 13 -8 2 -15 -10 -8 -10 -9 2 -5 8 2 14 12 14 21 -1 9 5 16
13 16 8 0 11 -5 7 -12 -5 -7 -3 -8 5 -4 7 5 10 15 6 23 -4 13 -3 14 9 4 16
-14 25 -4 21 22 -3 15 -1 16 11 6 13 -11 19 -3 16 22 -1 4 9 6 21 5 13 -1 21
4 19 12 -1 6 4 11 10 10 7 -2 12 5 12 14 -1 14 2 15 17 8 15 -9 17 -8 12 7 -5
13 -3 15 11 10 13 -5 17 -3 13 7 -4 9 2 13 16 12 14 -1 26 8 35 27 7 15 18 27
23 27 6 0 7 6 3 13 -5 7 0 6 11 -3 11 -9 16 -10 11 -2 -4 7 -2 12 4 12 6 0 8
5 4 12 -5 8 -2 9 10 5 10 -4 15 -3 11 3 -3 6 -1 11 4 11 6 1 15 2 20 3 5 0 13
5 18 10 5 5 3 6 -4 2 -7 -4 -13 -2 -13 4 0 6 -5 8 -12 4 -7 -4 -8 -3 -4 4 4 6
13 9 21 5 8 -3 15 0 15 7 0 6 5 8 12 4 8 -5 9 -2 5 10 -4 10 -3 15 3 11 5 -3
18 -1 27 5 16 11 16 11 1 6 -10 -3 -20 0 -24 6 -4 7 -3 8 4 4 7 -4 12 -2 12 4
0 6 4 9 9 6 5 -3 12 1 15 10 4 10 12 14 22 10 15 -6 15 -4 3 11 -9 11 -10 14
-1 9 7 -4 12 -1 12 8 0 9 5 16 11 16 5 0 7 -6 3 -12 -5 -9 -2 -8 10 1 13 11
14 16 4 22 -9 6 -8 9 7 10 11 1 23 1 27 0 4 0 4 7 1 16 -5 11 -3 14 6 8 10 -6
11 -2 6 16 -4 17 -3 20 3 10 12 -17 30 -6 43 26 6 17 14 23 26 19 14 -6 14 -4
2 11 -9 11 -10 14 -1 9 7 -4 12 -1 12 8 0 9 5 16 11 16 5 0 7 -6 3 -12 -5 -9
-2 -8 10 1 13 11 14 16 4 22 -9 6 -7 9 7 9 11 0 27 5 35 11 13 9 12 10 -2 5
-12 -3 -15 -1 -11 9 3 8 9 12 14 9 5 -3 9 2 9 11 0 9 5 13 10 10 6 -3 10 2 10
12 1 18 30 65 30 47 0 -6 -6 -16 -12 -24 -11 -12 -10 -12 5 -1 9 7 17 20 17
27 0 8 7 14 15 14 8 0 15 4 15 9 0 5 7 17 16 25 9 9 11 16 4 16 -6 0 -8 5 -5
10 4 6 11 8 16 5 5 -4 9 -1 9 5 0 6 5 8 13 4 7 -5 6 0 -3 11 -9 11 -10 16 -2
11 7 -4 12 -2 12 4 0 6 5 8 13 4 9 -6 9 -4 -1 8 -14 17 -1 35 17 23 5 -3 12
-1 16 5 3 5 1 10 -5 10 -6 0 -8 5 -5 10 4 6 10 8 14 5 8 -4 30 17 46 44 5 9 4
12 -2 8 -5 -3 -10 0 -10 7 0 9 7 12 16 8 9 -3 13 -1 9 3 -5 5 1 15 12 22 12 8
17 19 13 26 -11 17 -13 38 -3 32 5 -3 11 -1 15 5 4 6 11 7 17 4 7 -4 8 -2 4 4
-4 7 -3 12 2 12 5 0 9 7 9 15 0 8 -5 15 -10 15 -5 0 3 10 19 22 16 12 31 23
34 25 2 2 -2 9 -10 14 -11 8 -9 9 9 4 20 -6 23 -4 17 10 -4 12 -2 16 7 12 8
-3 14 1 14 9 0 7 -5 11 -11 8 -6 -3 -3 1 7 9 9 8 17 21 17 30 0 9 4 19 10 22
6 4 7 -1 4 -12 -5 -15 -4 -15 4 -3 6 8 8 18 5 23 -3 4 3 14 13 21 13 10 14 15
4 21 -9 6 -11 4 -5 -5 6 -9 4 -11 -4 -6 -13 9 -6 21 12 21 7 1 11 6 9 13 -1 7
5 12 14 12 8 0 12 5 9 10 -4 6 -11 7 -17 4 -7 -5 -8 -2 -4 5 5 7 14 10 22 7
12 -5 12 -2 3 15 -6 11 -8 23 -5 27 3 3 6 0 6 -6 0 -7 5 -12 11 -12 6 0 8 7 5
16 -3 8 -2 12 3 9 5 -3 12 -1 16 5 3 5 1 10 -4 10 -6 0 -11 5 -11 11 0 5 5 7
10 4 6 -3 10 -1 10 5 0 6 4 8 10 5 6 -3 7 1 4 9 -3 9 -11 13 -18 9 -6 -3 -3 3
7 14 9 11 14 23 10 27 -4 4 1 4 11 0 16 -6 17 -4 7 14 -8 15 -8 23 1 28 6 4 8
3 4 -4 -3 -6 -2 -13 4 -17 5 -3 10 3 10 14 0 10 -6 22 -12 25 -7 3 -6 4 4 3 9
-1 17 2 16 7 0 5 6 13 14 17 10 7 10 9 1 9 -7 0 -13 5 -13 10 0 6 7 10 16 10
14 0 15 2 3 17 -8 9 -9 14 -3 10 13 -7 38 16 28 26 -4 3 1 13 10 22 9 9 14 21
11 26 -4 5 -2 9 4 9 6 0 8 7 4 15 -3 10 -1 15 7 13 12 -3 19 20 23 75 1 17 6
26 14 23 7 -3 10 1 6 10 -3 8 0 21 6 28 8 9 8 16 2 20 -6 4 -8 13 -5 21 4 8
10 12 15 9 9 -5 13 15 12 63 0 12 3 20 8 18 9 -6 23 51 15 64 -4 5 -1 13 5 17
8 5 9 3 4 -7 -5 -8 -4 -11 1 -6 5 5 9 12 9 15 0 4 4 13 9 20 7 12 4 12 -13 2
-20 -10 -21 -10 -9 9 6 11 15 18 19 15 4 -2 9 3 13 11 3 8 0 17 -6 21 -7 5 -5
12 7 21 14 9 15 13 4 13 -12 0 -12 2 1 10 8 5 14 20 15 33 0 13 5 30 12 38 16
20 17 31 2 40 -10 6 -9 13 6 30 11 12 15 19 8 16 -7 -5 -9 0 -6 13 3 11 9 20
13 20 12 0 7 50 -5 50 -5 0 -2 7 8 14 18 14 18 14 0 19 -15 4 -15 5 -2 6 21 1
34 31 14 31 -8 0 -15 5 -15 11 0 5 5 7 10 4 6 -3 11 -1 11 4 5 44 3 77 -6 83
-6 5 -3 8 8 8 9 0 17 5 17 11 0 5 -6 7 -12 3 -8 -5 -7 -1 2 10 16 21 24 56 12
56 -5 0 -9 7 -9 15 0 8 4 12 9 9 4 -3 8 2 8 10 0 9 -5 16 -11 16 -8 0 -8 4 -2
13 13 16 12 47 -1 47 -7 0 -8 3 -1 8 21 15 34 59 22 72 -9 10 -9 11 1 6 6 -4
12 -2 12 3 0 6 -4 11 -10 11 -5 0 -10 5 -10 11 0 5 6 7 13 3 9 -6 9 -5 0 8 -7
8 -9 18 -5 22 11 12 9 86 -3 86 -7 0 -7 3 0 8 13 9 13 52 1 71 -6 9 -5 12 1 8
7 -4 10 5 9 22 0 16 -4 27 -8 25 -5 -3 -8 0 -8 5 0 6 5 11 10 11 6 0 10 5 10
11 0 5 -4 8 -8 5 -5 -3 -9 1 -9 9 0 8 3 12 7 10 4 -2 7 13 6 34 0 22 -4 37 -7
35 -8 -5 -21 27 -14 34 3 3 5 0 5 -6 0 -7 5 -12 11 -12 8 0 9 4 0 13 -6 8 -8
17 -4 21 4 4 -1 4 -12 0 -17 -7 -18 -6 -7 8 9 12 10 18 2 23 -8 5 -8 11 1 21
8 10 8 14 0 14 -6 0 -11 5 -11 11 0 5 6 7 13 3 8 -5 8 -2 -2 9 -7 9 -9 17 -4
17 5 0 10 7 10 15 0 8 -5 15 -10 15 -5 0 -5 6 1 13 16 18 12 59 -4 46 -9 -8
-11 -5 -7 11 4 13 0 26 -8 31 -10 6 -10 9 -1 9 19 0 14 20 -5 21 -15 0 -15 2
2 9 11 5 14 9 7 9 -8 1 -10 6 -5 14 12 20 12 38 0 30 -8 -5 -8 -2 0 9 16 19 4
32 -15 15 -11 -8 -10 -4 3 16 13 20 14 27 5 25 -8 -2 -15 6 -17 17 -3 15 -2
17 6 6 7 -10 9 -6 8 15 -1 16 -10 35 -19 42 -10 7 -18 18 -18 24 0 7 7 3 15
-8 14 -18 15 -17 6 7 -5 15 -7 30 -3 35 4 4 -2 4 -13 1 -20 -7 -20 -7 -1 8 11
8 15 15 10 15 -5 0 -10 8 -11 18 -3 41 -9 58 -23 70 -8 8 -9 11 -2 7 15 -8 16
21 0 31 -7 5 -8 2 -3 -7 5 -8 4 -10 0 -6 -11 10 -16 39 -6 32 4 -2 8 2 8 10 0
8 -4 12 -9 9 -7 -4 -10 10 -7 32 0 4 -5 11 -13 15 -11 7 -10 9 1 9 11 0 10 4
-5 16 -10 8 -14 13 -7 10 7 -4 9 1 6 14 -3 11 -10 20 -17 20 -6 0 -4 5 4 10
10 6 11 10 3 10 -7 0 -13 9 -13 20 0 11 -5 20 -11 20 -8 0 -8 5 1 15 10 12 10
15 -3 15 -11 0 -13 6 -9 22 3 12 1 19 -5 15 -5 -3 -10 0 -10 8 0 8 5 11 10 8
5 -3 7 0 5 8 -3 8 -14 13 -24 11 -15 -2 -16 -1 -5 7 13 8 13 15 0 53 -7 24
-13 47 -11 51 1 5 -7 11 -18 14 -11 3 -20 10 -20 15 0 5 4 7 9 4 5 -4 8 2 7
11 -2 9 -9 19 -17 21 -11 3 -11 1 1 -7 9 -7 10 -11 3 -11 -20 0 -24 18 -6 29
16 9 16 10 2 11 -9 0 -23 8 -30 18 -13 15 -12 16 4 3 15 -12 17 -12 11 3 -3 9
-11 16 -16 16 -6 0 -8 7 -4 15 3 10 -1 15 -12 15 -15 0 -15 2 -2 10 11 7 12
10 2 10 -8 0 -12 6 -9 13 2 6 -12 41 -32 76 -19 36 -29 61 -23 57 7 -4 12 -2
12 3 0 6 -9 11 -20 11 -11 0 -20 5 -20 11 0 5 5 7 10 4 6 -3 10 -1 10 4 0 6
-5 11 -11 11 -5 0 -7 6 -3 13 6 9 5 9 -7 0 -12 -10 -15 -8 -15 7 0 10 5 16 10
13 5 -3 6 -1 2 5 -4 7 -14 12 -23 12 -13 0 -13 3 -3 15 11 13 10 14 -3 9 -12
-4 -15 -1 -12 15 2 13 -4 26 -18 36 -13 9 -16 15 -8 15 9 0 5 8 -10 21 -13 11
-24 28 -24 37 0 10 -7 16 -16 16 -13 -1 -16 6 -15 27 1 19 -3 29 -12 29 -7 0
-10 5 -7 10 3 6 2 10 -4 10 -6 0 -13 11 -17 24 -3 14 -13 27 -21 30 -8 4 -13
12 -10 19 3 8 -7 27 -22 43 -15 16 -31 42 -35 57 -3 15 -11 27 -17 27 -6 0
-18 8 -27 17 -16 16 -16 16 1 10 9 -3 17 -2 17 3 0 6 -6 10 -13 10 -8 0 -20
11 -27 25 -10 18 -16 22 -22 13 -5 -9 -8 -6 -8 9 0 16 -10 28 -32 38 -25 11
-27 14 -8 9 21 -4 22 -3 7 6 -9 6 -15 15 -12 20 7 11 -50 52 -59 42 -4 -4 -7
-2 -6 3 3 17 -12 55 -22 55 -5 0 -6 -5 -2 -12 4 -7 3 -8 -4 -4 -6 4 -9 13 -5
21 3 10 -1 15 -12 15 -14 0 -15 3 -5 14 10 13 7 14 -17 11 -15 -2 -22 -2 -15
1 15 7 16 34 1 34 -5 0 -7 6 -3 13 5 8 2 8 -9 -2 -15 -12 -17 -11 -17 7 0 11
-7 22 -15 26 -8 3 -15 12 -15 21 0 8 -7 15 -16 15 -9 0 -12 5 -8 11 5 8 -1 10
-20 7 -15 -3 -24 -3 -21 0 3 3 -3 15 -12 26 l-18 21 24 -20 25 -20 -20 27
c-15 21 -22 24 -33 15 -12 -9 -13 -9 -7 1 4 8 1 12 -10 12 -14 0 -15 2 -3 17
10 11 10 14 2 9 -8 -4 -13 -2 -13 5 0 7 -8 9 -21 6 -14 -4 -18 -2 -11 6 6 8 2
19 -14 34 -13 13 -26 18 -29 13 -3 -6 -12 -10 -18 -9 -9 0 -9 2 1 6 20 8 14
33 -9 33 -19 0 -20 2 -8 17 10 11 10 14 2 9 -7 -4 -13 -2 -13 3 0 15 -27 14
-33 -1 -4 -10 -6 -10 -6 -1 -1 6 4 15 9 18 13 8 -13 35 -34 35 -9 0 -16 7 -16
15 0 13 -4 14 -22 4 -20 -11 -21 -10 -10 3 10 13 10 17 -3 22 -9 3 -13 11 -9
17 4 7 3 9 -4 5 -6 -3 -27 10 -46 30 -20 21 -36 33 -36 28 0 -5 -5 -2 -10 6
-8 13 -11 13 -19 1 -7 -11 -11 -8 -17 10 -4 13 -7 29 -5 34 1 6 -3 4 -10 -2
-7 -7 -18 -13 -23 -13 -6 0 -4 5 4 10 13 9 12 12 -4 25 -10 8 -23 12 -29 8 -6
-3 -7 -2 -4 4 8 12 -37 53 -58 53 -8 0 -15 3 -15 8 0 4 -13 16 -28 27 -22 15
-24 16 -13 2 8 -10 11 -20 7 -24 -3 -3 -6 -2 -6 3 0 18 -42 55 -56 50 -9 -3
-16 4 -20 18 -4 18 -12 23 -30 21 -21 -2 -22 0 -12 14 7 9 9 13 4 9 -5 -4 -15
-1 -22 7 -8 8 -21 12 -29 9 -10 -4 -15 0 -15 12 0 16 -2 17 -10 4 -7 -11 -10
-11 -10 -2 0 7 -4 10 -10 7 -5 -3 -10 -1 -10 4 0 6 -7 11 -16 11 -9 0 -12 5
-8 13 5 7 0 6 -11 -3 -11 -9 -16 -10 -11 -2 4 7 2 12 -5 12 -6 0 -18 8 -25 18
-13 16 -14 16 -7 -3 l6 -20 -20 20 c-11 11 -18 25 -15 30 3 6 -2 4 -11 -4 -15
-12 -17 -12 -11 4 6 15 3 17 -15 12 -19 -5 -20 -3 -9 11 11 13 11 15 -4 9 -10
-3 -18 -2 -18 4 0 6 -4 7 -10 4 -5 -3 -10 0 -10 7 0 9 -3 9 -10 -2 -6 -10 -10
-11 -10 -2 0 6 -7 12 -15 12 -9 0 -25 9 -37 20 -20 18 -39 25 -60 21 -5 0 -8
4 -8 10 0 8 -4 8 -14 0 -11 -9 -16 -9 -22 0 -5 8 -3 9 6 4 9 -5 11 -4 6 4 -6
9 -11 9 -22 0 -9 -7 -14 -8 -13 -3 3 20 -2 31 -15 31 -8 0 -12 -7 -9 -16 3
-12 2 -11 -7 2 -6 10 -16 14 -23 10 -8 -4 -7 -1 1 9 11 14 10 16 -13 14 -14
-2 -23 -1 -20 2 9 9 -45 31 -62 25 -12 -5 -14 -3 -8 7 5 9 4 11 -3 6 -7 -4
-12 -1 -12 6 0 9 -3 9 -10 -2 -7 -11 -10 -11 -10 -2 0 7 -5 10 -10 7 -6 -4 -7
-11 -4 -17 4 -6 2 -8 -4 -4 -6 3 -9 15 -7 26 2 12 0 18 -5 15 -5 -3 -18 -1
-29 4 -14 8 -21 8 -24 -2 -3 -6 -6 -3 -6 8 -1 17 -3 17 -11 5 -5 -8 -10 -10
-10 -4 0 7 -7 14 -14 17 -11 4 -13 1 -10 -11 4 -11 -2 -8 -16 8 -12 14 -19 20
-17 15 3 -6 -5 -11 -18 -11 -13 0 -22 3 -19 7 5 8 -14 22 -33 25 -7 1 -9 -5
-6 -14 3 -10 -4 -5 -16 10 -18 23 -26 26 -41 18 -13 -7 -21 -7 -25 0 -3 5 -16
10 -29 10 -12 0 -28 6 -35 13 -11 10 -12 9 -6 -2 5 -9 3 -12 -6 -9 -8 3 -13
11 -11 17 1 7 -2 10 -7 6 -6 -3 -23 2 -38 12 -15 10 -24 12 -20 6 12 -18 -3
-16 -25 4 -15 14 -18 14 -13 2 7 -19 -26 -19 -49 0 -9 8 -16 10 -16 6 0 -4
-12 0 -26 10 -15 9 -24 13 -20 7 3 -5 -6 -9 -19 -9 -14 0 -25 3 -25 8 0 5 -7
5 -17 2 -10 -4 -14 -2 -9 5 7 12 -31 11 -51 -1 -6 -4 -15 -2 -19 4 -4 8 -3 9
4 5 7 -4 12 -2 12 3 0 13 -13 14 -24 4 -10 -10 -56 -11 -56 -1 0 4 -3 7 -7 7
-22 -4 -33 2 -27 14 4 6 -2 4 -13 -6 -15 -13 -23 -15 -28 -7 -4 6 -13 9 -20 6
-7 -2 -18 1 -25 7 -10 9 -11 9 -6 0 3 -6 2 -14 -3 -17 -5 -3 -12 1 -15 10 -4
11 -10 13 -23 5 -13 -7 -25 -4 -47 12 -16 11 -26 16 -22 9 10 -16 -6 -15 -23
1 -11 10 -13 10 -7 0 4 -7 2 -13 -3 -13 -6 0 -11 6 -11 13 0 9 -3 8 -9 -2 -5
-7 -11 -9 -14 -4 -7 10 -67 10 -85 -1 -7 -4 -12 -2 -12 6 0 9 -3 9 -10 -2 -8
-12 -11 -13 -19 -1 -7 11 -9 11 -14 0 -4 -12 -7 -11 -16 1 -8 11 -11 12 -11 2
0 -8 -5 -10 -12 -5 -22 13 -40 12 -34 -2 3 -9 0 -12 -10 -8 -7 3 -14 9 -14 15
0 5 -5 6 -10 3 -6 -4 -8 -10 -6 -14 3 -3 -4 -7 -14 -7 -15 0 -16 3 -8 14 9 10
8 12 -3 10 -8 -2 -19 -9 -25 -17 -9 -11 -12 -12 -19 -1 -6 9 -4 11 5 5 9 -5
11 -4 6 4 -4 6 -13 8 -19 4 -22 -14 -49 -14 -41 -1 5 9 2 9 -9 -1 -14 -11 -17
-11 -17 0 0 8 -6 5 -15 -7 -8 -10 -15 -14 -14 -9 3 26 -3 28 -17 5 -8 -15 -13
-18 -12 -8 2 9 -1 17 -7 16 -5 0 -9 -3 -8 -7 1 -4 -4 -8 -12 -8 -8 0 -12 4 -9
8 2 4 0 10 -6 14 -5 3 -10 -1 -10 -9z m463 -11 c-3 -9 -8 -14 -10 -11 -3 3 -2
9 2 15 9 16 15 13 8 -4z m600 -80 c-3 -9 -8 -14 -10 -11 -3 3 -2 9 2 15 9 16
15 13 8 -4z m118 -28 c-10 -9 -11 -8 -5 6 3 10 9 15 12 12 3 -3 0 -11 -7 -18z
m184 -26 c3 -5 2 -12 -3 -15 -5 -3 -9 1 -9 9 0 17 3 19 12 6z m342 -126 c0 -8
-4 -12 -9 -9 -5 3 -6 10 -3 15 9 13 12 11 12 -6z m238 -95 c3 -5 1 -10 -4 -10
-6 0 -11 5 -11 10 0 6 2 10 4 10 3 0 8 -4 11 -10z m363 -205 c-3 -3 -9 2 -12
12 -6 14 -5 15 5 6 7 -7 10 -15 7 -18z m-4181 -120 c0 -8 -4 -12 -9 -9 -5 3
-6 10 -3 15 9 13 12 11 12 -6z m4390 -27 c-3 -8 -6 -5 -6 6 -1 11 2 17 5 13 3
-3 4 -12 1 -19z m197 -136 c3 -5 -1 -9 -9 -9 -8 0 -12 4 -9 9 3 4 7 8 9 8 2 0
6 -4 9 -8z m621 -622 c3 -6 -1 -7 -9 -4 -18 7 -21 14 -7 14 6 0 13 -4 16 -10z
m193 -291 c-3 -8 -7 -3 -11 10 -4 17 -3 21 5 13 5 -5 8 -16 6 -23z m167 -267
c-3 -3 -11 0 -18 7 -9 10 -8 11 6 5 10 -3 15 -9 12 -12z m-6775 -36 c0 -2 -7
-7 -16 -10 -8 -3 -12 -2 -9 4 6 10 25 14 25 6z m6897 -212 c-3 -3 -12 -4 -19
-1 -8 3 -5 6 6 6 11 1 17 -2 13 -5z m-7272 -834 c3 -5 1 -10 -4 -10 -6 0 -11
5 -11 10 0 6 2 10 4 10 3 0 8 -4 11 -10z m7600 -980 c3 -5 1 -10 -4 -10 -6 0
-11 5 -11 10 0 6 2 10 4 10 3 0 8 -4 11 -10z m-8 -185 c0 -8 -4 -12 -9 -9 -5
3 -6 10 -3 15 9 13 12 11 12 -6z m-62 -384 c3 -5 2 -12 -3 -15 -5 -3 -9 1 -9
9 0 17 3 19 12 6z m-102 -346 c-3 -9 -8 -14 -10 -11 -3 3 -2 9 2 15 9 16 15
13 8 -4z m-7203 -335 c0 -5 -2 -10 -4 -10 -3 0 -8 5 -11 10 -3 6 -1 10 4 10 6
0 11 -4 11 -10z m195 -418 c-3 -3 -11 0 -18 7 -9 10 -8 11 6 5 10 -3 15 -9 12
-12z m45 -72 c0 -5 -2 -10 -4 -10 -3 0 -8 5 -11 10 -3 6 -1 10 4 10 6 0 11 -4
11 -10z m51 -77 c13 -16 12 -17 -3 -4 -10 7 -18 15 -18 17 0 8 8 3 21 -13z
m6393 -174 c-3 -5 -10 -7 -15 -3 -5 3 -7 10 -3 15 3 5 10 7 15 3 5 -3 7 -10 3
-15z m-139 -169 c-3 -5 -12 -10 -18 -10 -7 0 -6 4 3 10 19 12 23 12 15 0z
m-224 -253 c-10 -9 -11 -8 -5 6 3 10 9 15 12 12 3 -3 0 -11 -7 -18z m-5465
-99 c3 -4 -1 -5 -10 -4 -8 1 -18 5 -22 8 -3 4 1 5 10 4 8 -1 18 -5 22 -8z
m348 -304 c3 -8 2 -12 -4 -9 -6 3 -10 10 -10 16 0 14 7 11 14 -7z m181 -134
c3 -6 -1 -7 -9 -4 -18 7 -21 14 -7 14 6 0 13 -4 16 -10z m37 -14 c7 4 8 2 4
-5 -9 -13 -26 -5 -25 12 0 9 2 8 6 -1 2 -6 10 -9 15 -6z m4013 -135 c3 -5 2
-12 -3 -15 -5 -3 -9 1 -9 9 0 17 3 19 12 6z m-152 -92 c-8 -8 -13 -7 -18 2 -5
8 -4 10 3 5 7 -4 12 -2 12 5 0 7 3 9 7 6 4 -4 2 -12 -4 -18z m-3226 -114 c0
-8 -4 -12 -9 -9 -5 3 -6 10 -3 15 9 13 12 11 12 -6z m2603 -129 c0 -3 -4 -8
-10 -11 -5 -3 -10 -1 -10 4 0 6 5 11 10 11 6 0 10 -2 10 -4z m-259 -79 c-10
-9 -11 -8 -5 6 3 10 9 15 12 12 3 -3 0 -11 -7 -18z"/>
<path d="M3247 7805 c3 -8 9 -12 14 -9 12 7 11 11 -5 17 -10 4 -13 1 -9 -8z"/>
<path d="M2380 7531 c0 -6 4 -13 10 -16 6 -3 7 1 4 9 -7 18 -14 21 -14 7z"/>
<path d="M6975 6440 c10 -11 20 -20 23 -20 3 0 -3 9 -13 20 -10 11 -20 20 -23
20 -3 0 3 -9 13 -20z"/>
<path d="M923 6365 c0 -8 4 -12 9 -9 5 3 6 10 3 15 -9 13 -12 11 -12 -6z"/>
<path d="M7465 2361 c-3 -5 -2 -12 3 -15 5 -3 9 1 9 9 0 17 -3 19 -12 6z"/>
<path d="M7250 1975 c-7 -9 -8 -15 -2 -15 5 0 12 7 16 15 3 8 4 15 2 15 -2 0
-9 -7 -16 -15z"/>
<path d="M7195 1890 c-3 -5 -1 -10 4 -10 6 0 11 5 11 10 0 6 -2 10 -4 10 -3 0
-8 -4 -11 -10z"/>
</g>
</svg>
